<svg width="105" height="106" xmlns="http://www.w3.org/2000/svg">
 <g>
  <title>Layer 1</title>
  <g id="svg_1" stroke="null">
   <path id="svg_3" fill="#424751" d="m54.41036,2.07302c3.3397,-0.43012 6.83633,1.07293 8.87154,3.63945c1.96165,2.32074 2.41282,5.44972 1.62817,8.29983c-1.33392,4.36734 -6.02716,7.3687 -10.73511,6.58882c-4.68343,-0.65699 -8.47921,-4.81164 -8.18987,-9.42948c-0.06866,-4.58949 3.80069,-8.46526 8.42527,-9.09862zm-32.38677,12.70499c4.31562,-0.94058 8.85683,0.65226 10.97541,4.49496c2.28532,3.93722 1.27507,8.93319 -2.36869,11.75022c-3.88896,3.10535 -9.87689,2.67996 -13.25582,-0.93586c-2.46187,-2.46254 -2.78063,-5.79003 -2.10386,-9.00882c0.91217,-3.08644 3.56039,-5.47335 6.75296,-6.3005z" stroke="null"/>
   <path id="svg_4" fill="#8bb6bf" d="m84.80606,23.801c5.02672,-1.16273 10.50461,0.22215 14.25136,3.66308c3.52115,3.15261 5.28173,7.95952 4.72757,12.54428c-0.57378,5.35046 -4.39409,10.17628 -9.59735,12.12835c-2.6237,1.09656 -5.34058,1.12019 -8.14573,0.87441c-7.11587,-0.96422 -12.79483,-7.01421 -13.04985,-13.94334c-0.52474,-7.0473 4.72757,-13.6692 11.81401,-15.26678l-0.00001,0z" stroke="null"/>
   <path id="svg_5" fill="#424751" d="m53.91995,28.51338c0.98573,-0.27887 2.09896,-0.25523 3.1043,-0.0898c2.21176,0.8366 3.03074,3.31332 1.89299,5.29374c-1.23093,2.00406 -4.14888,2.46726 -5.90946,0.80824c-1.9077,-1.74883 -1.43691,-4.84945 0.91217,-6.01218zm-16.24243,6.62662c1.58403,-0.96894 3.8154,-0.58137 4.95806,0.85078c1.29469,1.52668 1.04458,3.92304 -0.55907,5.15195c-1.7851,1.38488 -4.48236,0.98312 -5.69368,-0.9075c-1.20641,-1.80554 -0.46099,-3.9514 1.29469,-5.09523z" stroke="null"/>
   <path id="svg_6" fill="#fff" d="m149.17256,37.65927c1.48595,3.92304 3.06998,7.80827 4.57554,11.72659c0.88764,2.31601 1.89789,4.55167 2.53543,6.95277c-4.78151,0.02836 -9.57283,0.03781 -14.35434,-0.00945c2.16271,-5.81367 4.46765,-11.58952 6.73335,-17.37482c0.17164,-0.43012 0.34329,-0.86496 0.51003,-1.29508l-0.00001,-0.00001z" stroke="null"/>
   <path id="svg_7" fill="#424751" d="m226.77526,46.69441zm-218.48809,-0.69007c3.4574,-1.25726 7.46897,-0.41594 10.10738,2.06551c3.70261,3.28968 3.88406,9.66108 0.27463,13.07838c-2.77082,2.91156 -7.40521,3.74816 -11.09801,2.05605c-3.36913,-1.42742 -5.69368,-4.93453 -5.56617,-8.4889c-0.10789,-3.84742 2.57466,-7.39234 6.28217,-8.71104z" stroke="null"/>
   <path id="svg_8" fill="#8bb6bf" d="m52.40948,44.9618c3.24652,-1.12019 6.93932,-0.40176 9.56302,1.72047c3.17787,2.62324 4.17831,7.12765 2.52071,10.80964c-1.52028,3.51183 -5.41414,5.82784 -9.35215,5.55843c-4.85998,-0.13234 -9.09713,-4.13101 -9.15598,-8.85284c-0.25501,-4.10738 2.35888,-7.93589 6.42439,-9.23569l0.00001,-0.00001z" stroke="null"/>
   <path id="svg_9" fill="#fff" d="m264.15441,46.68227c3.20729,-1.03039 6.99817,-0.21742 9.12656,2.40582c2.89343,3.61109 2.95228,9.12698 0.28934,12.86569c-1.85376,2.51453 -4.87959,3.63 -8.02803,3.12898c-3.50644,-0.49629 -5.98792,-3.30859 -6.72844,-6.53683c-1.21132,-4.38152 0.50512,-10.25663 5.34058,-11.86366l-0.00001,0z" stroke="null"/>
   <path id="svg_10" fill="#424751" d="m31.43459,50.29808c1.86847,-0.55301 3.56529,-0.10871 4.62948,1.50777c1.44181,1.8859 0.31386,4.52332 -1.77039,5.393c-0.89745,0.25051 -2.01559,0.25996 -2.90814,-0.01418c-1.15737,-0.56719 -2.10386,-1.75355 -2.35888,-2.98246c-0.2354,-1.59285 0.97101,-3.22351 2.40792,-3.90414l0.00001,0.00001zm6.81672,15.58819c2.15781,-0.60027 4.00176,0.12289 4.97277,2.06551c1.15737,2.36328 -1.10343,5.34101 -3.78107,4.99597c-2.0254,0.08508 -3.53096,-1.83863 -3.61924,-3.64418c0.03923,-1.46051 1.13285,-2.75086 2.42754,-3.4173zm15.65393,6.52265c2.46677,-1.42269 5.87022,0.80824 5.49261,3.52601c-0.02452,2.73668 -3.77126,4.53749 -6.01735,2.67523c-2.30984,-1.50305 -1.95674,-5.04796 0.52474,-6.20124zm-31.03814,2.12695c2.7365,-0.43957 5.57598,0.21742 7.73379,1.91426c3.27595,2.52871 4.56573,7.02366 2.89343,10.77655c-1.81452,4.56585 -7.42973,6.97167 -12.17692,5.27011c-4.73737,-1.46051 -7.58666,-6.71644 -6.11053,-11.29174c1.00044,-3.49293 3.96252,-6.04054 7.66023,-6.66917l0,-0.00001zm30.08184,12.62463c3.35932,-0.70898 6.83143,-0.19379 9.32272,2.23093c3.56039,3.11007 4.03118,8.73468 1.05929,12.36467c-2.63351,3.37004 -7.52291,4.75964 -11.54919,2.93047c-4.21754,-1.75355 -6.48324,-5.96964 -5.66916,-10.31807c0.62282,-3.40785 3.40346,-6.26269 6.83633,-7.208l0.00001,0z" stroke="null"/>
  </g>
 </g>

</svg>